<svg width="25" height="25" viewBox="0 0 25 25" fill="none" xmlns="http://www.w3.org/2000/svg"> <g clip-path="url(#clip0_43_43)"> <path d="M0.653844 11.6834C0.489909 11.6833 0.346456 11.7448 0.202985 11.8882C0.0595142 12.0316 -0.00198907 12.175 -0.00202112 12.339C-0.00205316 12.5029 0.059394 12.6464 0.202809 12.7898C0.346223 12.9333 0.489653 12.9948 0.653587 12.9948L22.4978 12.9991L17.333 17.6292C17.1486 17.7931 17.0665 17.998 17.128 18.244C17.1894 18.4899 17.3328 18.6538 17.5582 18.7153C17.7836 18.7769 18.009 18.7359 18.1935 18.572L24.588 12.8356C24.7315 12.6922 24.793 12.5282 24.7931 12.3438C24.7931 12.1594 24.7317 11.9954 24.5882 11.852L18.1959 6.11301C18.0115 5.94904 17.7861 5.90802 17.5607 5.96945C17.3353 6.03088 17.1918 6.19478 17.1303 6.44067C17.0688 6.68656 17.1507 6.8915 17.3351 7.05547L22.4981 11.6876L0.653844 11.6834Z" fill="black"/> </g> <defs> <clipPath id="clip0_43_43"> <rect width="25" height="25" fill="white"/> </clipPath> </defs> </svg>